<?xml version="1.0" encoding="UTF-8"?>
<svg width="256px" height="256px" viewBox="0 0 256 256" version="1.1" xmlns="http://www.w3.org/2000/svg">
    <g>
        <path d="M224,48 L32,48 C23.1634375,48 16,55.1634375 16,64 L16,192 C16,200.836562 23.1634375,208 32,208 L224,208 C232.836562,208 240,200.836562 240,192 L240,64 C240,55.1634375 232.836562,48 224,48 Z M224,72 L224,83.5515625 L128,144 L32,83.5515625 L32,72 L224,72 Z M32,192 L32,107.448438 L128,168 L224,107.448438 L224,192 L32,192 Z" fill="#FF0000"/>
    </g>
</svg>
