<?xml version="1.0" encoding="UTF-8"?>
<svg width="256px" height="256px" viewBox="0 0 256 140" version="1.1" xmlns="http://www.w3.org/2000/svg" preserveAspectRatio="xMidYMid">
    <g>
        <path d="M78.0659341,92.5875806 C90.8837956,92.5875806 101.274726,82.1966508 101.274726,69.3787894 C101.274726,56.5609279 90.8837956,46.1699982 78.0659341,46.1699982 C65.2480726,46.1699982 54.8571429,56.5609279 54.8571429,69.3787894 C54.8571429,82.1966508 65.2480726,92.5875806 78.0659341,92.5875806 Z M23.2087913,139.005163 C36.0266526,139.005163 46.4175825,128.614233 46.4175825,115.796372 C46.4175825,102.97851 36.0266526,92.5875806 23.2087913,92.5875806 C10.3909298,92.5875806 0,102.97851 0,115.796372 C0,128.614233 10.3909298,139.005163 23.2087913,139.005163 Z M232.791209,139.005163 C245.60907,139.005163 256,128.614233 256,115.796372 C256,102.97851 245.60907,92.5875806 232.791209,92.5875806 C219.973347,92.5875806 209.582418,102.97851 209.582418,115.796372 C209.582418,128.614233 219.973347,139.005163 232.791209,139.005163 Z" fill="#D0021B"></path>
        <path d="M156.565464,70.3568084 C155.823426,62.6028163 155.445577,56.1490255 149.505494,51.6131676 C141.982638,45.8687002 133.461166,49.5960243 122.964463,45.8072968 C112.650326,43.3121427 105,34.1545727 105,23.2394367 C105,10.4213752 115.390929,0.0304454837 128.208791,0.0304454837 C141.026653,0.0304454837 151.417582,10.4213752 151.417582,23.2394367 C151.417582,31.5814451 146.834629,38.9112195 140.141929,43.253767" id="Path" fill="#D0021B"></path>
        <path d="M156.565464,70.3568084 C155.823426,62.6028163 155.445577,56.1490255 149.505494,51.6131676 C141.982638,45.8687002 133.461166,49.5960243 122.964463,45.8072968 C112.650326,43.3121427 105,34.1545727 105,23.2394367 C105,10.4213752 115.390929,0.0304454837 128.208791,0.0304454837 C141.026653,0.0304454837 151.417582,10.4213752 151.417582,23.2394367 C151.417582,31.5814451 146.834629,38.9112195 140.141929,43.253767" id="Path" fill="#D0021B"></path>
        <path d="M153.233396,23.2394367 C153.233396,11.0182827 143.489723,1.27460982 131.268569,1.27460982 C119.047415,1.27460982 109.303742,11.0182827 109.303742,23.2394367 C109.303742,35.4605907 119.047415,45.2042636 131.268569,45.2042636 C143.489723,45.2042636 153.233396,35.4605907 153.233396,23.2394367 Z" id="Path" fill="#D0021B"></path>
    </g>
</svg>
