<?xml version="1.0" encoding="UTF-8"?>
<svg width="256px" height="256px" viewBox="0 0 256 256" version="1.1" xmlns="http://www.w3.org/2000/svg" preserveAspectRatio="xMidYMid">
    <g>
        <path d="M210.483381,73.8236374 C207.827698,72.9095503 205.075867,72.0446761 202.24247,71.2267368 C202.708172,69.3261098 203.135596,67.4500894 203.515631,65.6059664 C209.753843,35.3248922 205.675082,10.9302478 191.747328,2.89849283 C178.392359,-4.80289661 156.551327,3.22703567 134.492936,22.4237776 C132.371761,24.2697233 130.244662,26.2241201 128.118477,28.2723861 C126.701777,26.917204 125.287358,25.6075897 123.876584,24.3549348 C100.758745,3.82852863 77.5866802,-4.82157937 63.6725966,3.23341515 C50.3303869,10.9571328 46.3792156,33.8904224 51.9945178,62.5880206 C52.5367729,65.3599011 53.1706189,68.1905639 53.8873982,71.068617 C50.6078941,71.9995641 47.4418534,72.9920277 44.4125156,74.0478303 C17.3093297,83.497195 0,98.3066828 0,113.667995 C0,129.533287 18.5815786,145.446423 46.8116526,155.095373 C49.0394553,155.856809 51.3511025,156.576778 53.7333796,157.260293 C52.9600965,160.37302 52.2875179,163.423318 51.7229345,166.398431 C46.3687351,194.597975 50.5500231,216.989464 63.8566899,224.664425 C77.6012619,232.590464 100.66852,224.443422 123.130185,204.809231 C124.905501,203.257196 126.687196,201.611293 128.472081,199.886102 C130.785552,202.113904 133.095375,204.222319 135.392897,206.199955 C157.14963,224.922338 178.637969,232.482469 191.932332,224.786092 C205.663234,216.837268 210.125675,192.78347 204.332202,163.5181 C203.88974,161.283006 203.374826,158.99961 202.796573,156.675661 C204.416503,156.196743 206.006814,155.702335 207.557482,155.188332 C236.905331,145.46465 256,129.745175 256,113.667995 C256,98.2510906 238.132466,83.3418093 210.483381,73.8236374 Z" fill="#00D8FF"></path>
        <path d="M201.345395,142.849369 C199.916784,143.335904 198.457951,143.806097 196.973489,144.259729 C194.601265,135.10967 191.343916,125.401337 187.344902,115.398279 C191.107585,105.643441 194.19431,96.1389071 196.452239,87.1741422 C199.028263,87.9119505 201.51284,88.7097378 203.886126,89.5688692 C227.558771,97.7860632 242.743896,110.681402 242.743896,113.667995 C242.743896,116.906155 226.524902,130.681567 201.345395,142.849369 Z" fill="#00D8FF"></path>
        <path d="M163.614748,169.155666 C160.160126,164.071931 156.645385,158.728434 153.102045,153.161994 C159.553457,153.578055 165.724873,153.796312 171.512451,153.796312 C177.414097,153.796312 183.701482,153.552831 190.213456,153.093572 C186.815807,158.864385 183.29749,164.394275 179.722144,169.645272 C174.417353,175.562126 168.988383,181.117398 163.614748,186.252889 C163.524925,180.586468 163.518619,174.927636 163.614748,169.155666 Z" fill="#00D8FF"></path>
        <path d="M107.499,184.06751 C103.708294,178.068962 100.236486,171.863061 97.1245134,165.518618 C102.372575,165.990031 107.835139,166.274559 113.45659,166.274559 C119.130263,166.274559 124.75419,165.976581 130.246829,165.412797 C127.19662,171.958451 123.832638,178.356563 120.168357,184.513901 C115.845075,190.418691 111.383396,196.000553 106.843089,201.21359 C106.683286,195.529156 106.684568,189.847384 107.499,184.06751 Z" fill="#00D8FF"></path>
        <path d="M64.6498066,142.849369 C39.6138087,130.70578 23.2775995,116.906155 23.2775995,113.667995 C23.2775995,110.681402 38.4627241,97.7860632 62.1353695,89.5688692 C64.6189872,88.6549681 67.2497834,87.7842454 69.9078195,86.9598346 C72.1879287,96.0793187 75.2988126,105.621615 79.0695194,115.398279 C75.0379834,125.460249 71.7661774,135.236094 69.4513061,144.436982 C67.8349952,143.95484 66.2445856,143.449852 64.6498066,142.849369 Z" fill="#00D8FF"></path>
        <path d="M92.4288867,101.074109 C95.8399297,106.104243 99.3011301,111.392135 102.772811,116.876991 C96.3726619,116.488777 90.2186866,115.920069 84.4189737,115.920069 C78.5811285,115.920069 72.9086459,116.154357 67.4192223,116.613617 C70.8310162,110.846325 74.3511962,105.319249 77.9300909,100.068386 C83.2346067,94.1515511 88.6629069,88.5963676 94.0372357,83.4608777 C94.1288662,89.1272214 94.1351889,94.7860573 92.4288867,101.074109 Z" fill="#00D8FF"></path>
        <path d="M128.072757,77.2191046 C133.17598,82.8849458 138.218949,89.2091779 143.088188,96.0793187 C138.179413,95.8361405 133.133889,95.7089096 128,95.7089096 C122.866111,95.7089096 117.820587,95.8361405 112.911812,96.0793187 C117.709592,89.3123505 122.771033,82.9888991 127.927243,77.2191046 C127.975419,77.1663145 128.024581,77.1663145 128.072757,77.2191046 Z" fill="#00D8FF"></path>
        <path d="M128,63.1848276 C136.709092,63.1848276 143.773584,70.2493197 143.773584,78.9584119 C143.773584,87.6675041 136.709092,94.7319962 128,94.7319962 C119.290908,94.7319962 112.226416,87.6675041 112.226416,78.9584119 C112.226416,70.2493197 119.290908,63.1848276 128,63.1848276 Z" fill="#00D8FF"></path>
    </g>
</svg>
