<?xml version="1.0" encoding="UTF-8"?>
<svg width="256px" height="256px" viewBox="0 0 256 256" version="1.1" xmlns="http://www.w3.org/2000/svg" preserveAspectRatio="xMidYMid">
    <g>
        <path d="M20,0 L236,0 C247.045695,-2.02906125e-15 256,8.954305 256,20 L256,236 C256,247.045695 247.045695,256 236,256 L20,256 C8.954305,256 1.3527075e-15,247.045695 0,236 L0,20 C-1.3527075e-15,8.954305 8.954305,2.02906125e-15 20,0 Z" fill="#3178C6"></path>
        <path d="M150.518,200.475 L150.518,228.095 L186.688,228.095 L186.688,235.375 L142.757,235.375 L142.757,200.475 L150.518,200.475 Z M203.518,200.475 L203.518,235.375 L195.757,235.375 L195.757,200.475 L203.518,200.475 Z M172.518,200.475 L172.518,208.095 L165.757,208.095 L165.757,200.475 L172.518,200.475 Z M177.518,200.475 L177.518,208.095 L170.757,208.095 L170.757,200.475 L177.518,200.475 Z" fill="#FFFFFF" fill-rule="nonzero"></path>
        <path d="M115.707,202.719 L130.707,202.719 C135.849,202.719 140.707,207.577 140.707,212.719 L140.707,223.375 C140.707,228.517 135.849,233.375 130.707,233.375 L115.707,233.375 C110.565,233.375 105.707,228.517 105.707,223.375 L105.707,212.719 C105.707,207.577 110.565,202.719 115.707,202.719 Z M130.707,226.375 C132.364,226.375 133.707,225.032 133.707,223.375 L133.707,212.719 C133.707,211.062 132.364,209.719 130.707,209.719 L115.707,209.719 C114.05,209.719 112.707,211.062 112.707,212.719 L112.707,223.375 C112.707,225.032 114.05,226.375 115.707,226.375 L130.707,226.375 Z" fill="#FFFFFF" fill-rule="nonzero"></path>
        <path d="M38.765,202.719 L53.765,202.719 C58.907,202.719 63.765,207.577 63.765,212.719 L63.765,223.375 C63.765,228.517 58.907,233.375 53.765,233.375 L38.765,233.375 C33.623,233.375 28.765,228.517 28.765,223.375 L28.765,212.719 C28.765,207.577 33.623,202.719 38.765,202.719 Z M53.765,226.375 C55.422,226.375 56.765,225.032 56.765,223.375 L56.765,212.719 C56.765,211.062 55.422,209.719 53.765,209.719 L38.765,209.719 C37.108,209.719 35.765,211.062 35.765,212.719 L35.765,223.375 C35.765,225.032 37.108,226.375 38.765,226.375 L53.765,226.375 Z" fill="#FFFFFF" fill-rule="nonzero"></path>
        <path d="M77.765,202.719 L92.765,202.719 C97.907,202.719 102.765,207.577 102.765,212.719 L102.765,223.375 C102.765,228.517 97.907,233.375 92.765,233.375 L77.765,233.375 C72.623,233.375 67.765,228.517 67.765,223.375 L67.765,212.719 C67.765,207.577 72.623,202.719 77.765,202.719 Z M92.765,226.375 C94.422,226.375 95.765,225.032 95.765,223.375 L95.765,212.719 C95.765,211.062 94.422,209.719 92.765,209.719 L77.765,209.719 C76.108,209.719 74.765,211.062 74.765,212.719 L74.765,223.375 C74.765,225.032 76.108,226.375 77.765,226.375 L92.765,226.375 Z" fill="#FFFFFF" fill-rule="nonzero"></path>
    </g>
</svg>
